<svg xmlns="http://www.w3.org/2000/svg" width="40" height="40" viewBox="0 0 40 40">
  <g id="Group_37" data-name="Group 37" transform="translate(-273 -242)">
    <circle id="Ellipse_1" data-name="Ellipse 1" cx="20" cy="20" r="20" transform="translate(273 242)" fill="#0e1428"/>
    <path id="ic_add_a_photo_24px" d="M3,4V1H5V4H8V6H5V9H3V6H0V4Zm3,6V7H9V4h7l1.83,2H21a2.006,2.006,0,0,1,2,2V20a2.006,2.006,0,0,1-2,2H5a2.006,2.006,0,0,1-2-2V10Zm7,9a5,5,0,1,0-5-5A5,5,0,0,0,13,19ZM9.8,14A3.2,3.2,0,1,0,13,10.8,3.2,3.2,0,0,0,9.8,14Z" transform="translate(282 251)" fill="#f18805"/>
  </g>
</svg>
